Coordinates
version=1
nRows=10
nColumns=34
inDegrees=yes

Units are S.I. units (second, meters, Newtons, ...)
Angles are in degrees.

endheader
time	pelvis_tilt	pelvis_list	pelvis_rotation	pelvis_tx	pelvis_ty	pelvis_tz	hip_flexion_r	hip_adduction_r	hip_rotation_r	knee_angle_r	ankle_angle_r	subtalar_angle_r	mtp_angle_r	hip_flexion_l	hip_adduction_l	hip_rotation_l	knee_angle_l	socket_flexion	socket_adduction	socket_rotation	socket_tx	socket_ty	socket_tz	pros_ankle_rx	pros_ankle_ry	pros_ankle_rz	pros_ankle_tx	pros_ankle_ty	pros_ankle_tz	foot_flex	lumbar_extension	lumbar_bending	lumbar_rotation
      0.30000000	      2.41906321	     -5.05453145	     -2.71967774	     -0.37712656	      1.04951829	      0.35561037	      8.05343705	      1.05170957	     -7.21513378	    -63.50631695	     -2.20774280	      9.95972275	     16.39064045	      5.05047141	     -4.70985770	    -10.11034092	    -11.30360070	      7.03548947	      0.41020324	      8.94231955	      0.02847956	     -0.01873455	     -0.00616198	      0.00000000	      0.00000000	      0.00000000	      0.00000000	      0.00000000	      0.00000000	      5.72559971	    -19.98089966	     -5.35609558	      3.24994636
      0.30416667	      2.52764557	     -5.15565798	     -2.63450869	     -0.37171699	      1.05035075	      0.35532150	      8.50546274	      1.16804609	     -7.32516288	    -63.46961272	     -1.21351114	     10.04074642	     16.40688335	      4.49342566	     -4.78652596	    -10.20394311	    -11.21077158	      6.93053081	      0.39485208	      9.06592373	      0.02804525	     -0.01865228	     -0.00616516	      0.00000000	      0.00000000	      0.00000000	      0.00000000	      0.00000000	      0.00000000	      5.86683688	    -20.04069935	     -5.18517417	      3.10655527
      0.30833333	      2.60292658	     -5.23142735	     -2.54912821	     -0.36636371	      1.05117316	      0.35502052	      8.98677693	      1.24553292	     -7.45862807	    -63.35872684	     -0.44829040	     10.06653864	     16.43007144	      3.99131037	     -4.81627107	    -10.27000788	    -11.12535573	      6.84012763	      0.36877749	      9.19758522	      0.02767043	     -0.01842620	     -0.00593949	      0.00000000	      0.00000000	      0.00000000	      0.00000000	      0.00000000	      0.00000000	      6.03132040	    -20.10060570	     -5.00413199	      3.01036662
      0.31250000	      2.72584556	     -5.35003050	     -2.48081708	     -0.36103633	      1.05198918	      0.35476684	      9.40771361	      1.37330759	     -7.58071417	    -63.22031149	      0.60293997	     10.16647400	     16.46027472	      3.42377449	     -4.90614120	    -10.36594336	    -11.02924187	      6.73310161	      0.35123770	      9.29038276	      0.02728740	     -0.01834771	     -0.00586089	      0.00000000	      0.00000000	      0.00000000	      0.00000000	      0.00000000	      0.00000000	      6.14465588	    -20.13351824	     -4.83362282	      2.84466267
      0.31666667	      2.73945522	     -5.44142059	     -2.39172963	     -0.35586520	      1.05274187	      0.35441917	      9.94571931	      1.46396047	     -7.74398895	    -62.96088938	      0.90105615	     10.17183552	     16.47024658	      3.07500267	     -4.91365412	    -10.41826545	    -10.97915282	      6.68923775	      0.26552492	      9.35589892	      0.02743223	     -0.01796496	     -0.00516392	      0.00000000	      0.00000000	      0.00000000	      0.00000000	      0.00000000	      0.00000000	      6.26046693	    -20.26095799	     -4.80233147	      2.81126485
      0.32083333	      2.87756579	     -5.55139860	     -2.31810433	     -0.35049970	      1.05351293	      0.35411551	     10.32371062	      1.57883612	     -7.87173443	    -62.74547171	      2.16745913	     10.24379117	     16.53154834	      2.43930371	     -5.00461213	    -10.50011989	    -10.86243052	      6.56453429	      0.27545378	      9.50065238	      0.02658640	     -0.01796184	     -0.00525441	      0.00000000	      0.00000000	      0.00000000	      0.00000000	      0.00000000	      0.00000000	      6.42476371	    -20.18861141	     -4.44285659	      2.63086805
      0.32500000	      2.97770534	     -5.67542913	     -2.26665442	     -0.34528667	      1.05428599	      0.35394585	     10.73409415	      1.71970371	     -8.00620308	    -62.41584671	      3.01541272	     10.45105481	     16.52891693	      1.90701011	     -5.12887704	    -10.58144995	    -10.77944880	      6.46357939	      0.30505329	      9.55237204	      0.02613781	     -0.01784599	     -0.00536221	      0.00000000	      0.00000000	      0.00000000	      0.00000000	      0.00000000	      0.00000000	      6.52885366	    -20.30268287	     -4.28874893	      2.46845312
      0.32916667	      3.07085973	     -5.79043446	     -2.18750088	     -0.34011825	      1.05503353	      0.35365314	     11.14251794	      1.83735587	     -8.16398443	    -62.04004958	      3.71816528	     10.59930768	     16.50445311	      1.38526433	     -5.21144144	    -10.61995038	    -10.69374189	      6.37187902	      0.27681923	      9.62113807	      0.02558680	     -0.01770804	     -0.00527310	      0.00000000	      0.00000000	      0.00000000	      0.00000000	      0.00000000	      0.00000000	      6.65559535	    -20.37862355	     -4.09166369	      2.35503186
      0.33333333	      3.15507306	     -5.90989606	     -2.11357809	     -0.33498188	      1.05575532	      0.35336119	     11.54765954	      1.96095317	     -8.32783448	    -61.60577806	      4.38411042	     10.72436284	     16.47257463	      0.88492883	     -5.29569089	    -10.65756015	    -10.61415235	      6.28594527	      0.25065922	      9.68028448	      0.02510936	     -0.01754424	     -0.00510353	      0.00000000	      0.00000000	      0.00000000	      0.00000000	      0.00000000	      0.00000000	      6.77855271	    -20.45833990	     -3.89935960	      2.24603538
      0.33750000	      3.25151935	     -6.03762293	     -2.04520920	     -0.32983592	      1.05649097	      0.35308755	     11.91963868	      2.09130206	     -8.49921263	    -61.11505840	      5.06845194	     10.87690499	     16.41376965	      0.36702735	     -5.40810995	    -10.69937950	    -10.53229027	      6.19139641	      0.24528123	      9.72358284	      0.02462585	     -0.01737193	     -0.00514624	      0.00000000	      0.00000000	      0.00000000	      0.00000000	      0.00000000	      0.00000000	      6.88950824	    -20.53959655	     -3.68787331	      2.11916973
